<?xml version="1.0" encoding="utf-8"?>
<!-- Generator: Adobe Illustrator 22.0.0, SVG Export Plug-In . SVG Version: 6.00 Build 0)  -->
<svg version="1.1" id="Layer_1" xmlns="http://www.w3.org/2000/svg" xmlns:xlink="http://www.w3.org/1999/xlink" x="0px" y="0px"
	 viewBox="0 0 64.4 51.2" style="enable-background:new 0 0 64.4 51.2;" xml:space="preserve">
<style type="text/css">
	.st0{fill:#F1C347;}
</style>
<g>
	<path class="st0" d="M17.7,23.6c0,1.7-0.3,3.2-1.2,4.5c-1.2,1.8-3,2.5-5.2,2.3c-2.6-0.3-4.7-1.8-6.4-3.6c-2-2.2-3.3-4.7-3.9-7.6
		c-0.4-2-0.3-3.9,0.5-5.8c1-2.2,3.4-3.5,5.8-3.1c2.7,0.4,4.7,1.9,6.5,3.9c1.9,2.1,3.1,4.5,3.7,7.3C17.6,22.2,17.7,23,17.7,23.6z"/>
	<path class="st0" d="M15.6,9c0.1-2.1,0.4-4.2,1.7-6c1-1.4,2.4-2.3,4.1-2.4c1.4-0.1,2.7,0.4,3.8,1.2c1.9,1.3,3.2,3,4.1,5.1
		c1,2.1,1.5,4.3,1.5,6.6c0,2-0.4,4-1.5,5.7c-1.8,2.8-4.8,3.5-7.6,1.9c-2-1.1-3.4-2.9-4.4-4.9C16.2,13.9,15.7,11.6,15.6,9z"/>
	<path class="st0" d="M51.6,31.4c-2.7,0-4.7-1.8-5.3-4.5c-0.5-2.3-0.2-4.6,0.7-6.8c1.3-3.2,3.3-5.9,6.3-7.7c1.2-0.7,2.5-1.1,3.9-1.2
		c2.4-0.1,4.4,1.3,5.2,3.7c0.7,2,0.6,4,0.1,6.1c-1.1,3.8-3.2,7-6.6,9.1C54.5,31,53,31.4,51.6,31.4z"/>
	<path class="st0" d="M48.6,9.6c-0.1,3.2-1.4,6.7-4.2,9.5c-1.2,1.2-2.6,2-4.3,2.2c-2.1,0.2-3.7-0.5-4.9-2.1c-1.1-1.4-1.6-3-1.8-4.7
		c-0.3-3.7,0.6-7.1,2.8-10.2c0.9-1.3,2.1-2.4,3.6-3.2c3-1.5,6.1-0.5,7.7,2.4C48.2,5,48.6,6.7,48.6,9.6z"/>
</g>
<path class="st0" d="M45.5,31c-1-3.4-3.8-5.6-7.2-5.6c-2.3,0-4.2,0.9-5.7,2.7c-0.4,0.5-0.8,1.1-1.2,1.7c-0.4-0.6-0.8-1.2-1.3-1.8
	c-2.7-3.2-7.7-3.5-10.8-0.6c-2.5,2.4-3.2,6.5-1.7,9.8c1,2.2,2.7,4,4.5,5.6c2.7,2.5,5.7,4.8,8.5,7.3c0.5,0.4,0.9,0.4,1.4,0
	c2.3-1.9,4.6-3.9,6.9-5.8c1.8-1.5,3.5-3.1,4.8-5C45.6,36.8,46.3,34,45.5,31z M36.8,37.8c0,0.8-0.7,1.5-1.5,1.5h-2.5v2.5
	c0,0.8-0.7,1.5-1.5,1.5s-1.5-0.7-1.5-1.5v-2.5h-2.5c-0.8,0-1.5-0.7-1.5-1.5v0c0-0.8,0.7-1.5,1.5-1.5h2.5v-2.5c0-0.8,0.7-1.5,1.5-1.5
	s1.5,0.7,1.5,1.5v2.5h2.5C36.2,36.3,36.8,37,36.8,37.8L36.8,37.8z"/>
</svg>
